<?xml version="1.0" standalone="no"?>
<!DOCTYPE svg PUBLIC "-//W3C//DTD SVG 20010904//EN"
 "http://www.w3.org/TR/2001/REC-SVG-20010904/DTD/svg10.dtd">
<svg version="1.0" xmlns="http://www.w3.org/2000/svg"
 width="4854.000000pt" height="4854.000000pt" viewBox="0 0 4854.000000 4854.000000"
 preserveAspectRatio="xMidYMid meet">
<metadata>
Created by potrace 1.11, written by Peter Selinger 2001-2013
</metadata>
<g transform="translate(0.000000,4854.000000) scale(0.100000,-0.100000)"
fill="#000000" stroke="none">
<path d="M31090 46494 c-548 -30 -841 -60 -1240 -125 -2268 -372 -4227 -1565
-5607 -3413 -826 -1106 -1388 -2397 -1558 -3579 -49 -342 -90 -895 -107 -1449
-25 -822 30 -1604 162 -2268 213 -1075 603 -1904 1329 -2820 41 -52 193 -237
336 -410 430 -518 559 -688 726 -957 826 -1324 833 -2614 23 -4024 -218 -381
-466 -730 -975 -1374 -134 -170 -285 -362 -334 -425 -642 -823 -1545 -1789
-2570 -2749 -2872 -2690 -7083 -5745 -12450 -9033 -2675 -1639 -5922 -3486
-8460 -4813 -337 -176 -376 -198 -339 -190 10 3 154 25 319 51 3950 607 8533
2114 13455 4424 1069 501 2414 1174 3535 1767 2063 1093 4222 2348 6195 3605
680 433 1587 1031 2070 1366 135 93 246 166 248 161 2 -4 -9 -75 -24 -156
-346 -1899 -1512 -4190 -3467 -6813 -1437 -1928 -3282 -4015 -5453 -6170
-1352 -1341 -2763 -2650 -4016 -3724 -147 -126 -266 -231 -264 -233 2 -3 64
12 138 32 2272 625 5051 2340 8318 5134 2699 2308 5729 5365 8791 8871 969
1110 1986 2320 2679 3187 102 128 187 232 190 232 10 1 167 -121 281 -219 64
-55 179 -164 255 -243 714 -732 1113 -1685 1231 -2937 24 -261 24 -969 0
-1260 -59 -698 -192 -1425 -382 -2084 -56 -193 -247 -779 -316 -969 -856
-2350 -3208 -5401 -6809 -8832 -608 -580 -1425 -1318 -2028 -1833 -117 -100
-210 -182 -207 -182 11 0 842 359 1095 473 4024 1812 7183 4011 9491 6607 914
1029 1700 2134 2326 3275 151 275 461 901 586 1181 695 1569 1091 3121 1209
4739 27 367 15 1317 -19 1504 l-6 34 169 -88 c2831 -1476 4243 -2426 5118
-3443 557 -647 867 -1349 937 -2121 17 -192 6 -630 -21 -831 -141 -1059 -588
-2124 -1603 -3820 -857 -1432 -2165 -3350 -3544 -5198 -161 -216 -293 -395
-293 -397 0 -12 992 729 1445 1080 1054 816 1917 1543 2755 2319 269 249 960
941 1177 1178 928 1014 1532 1860 1978 2770 301 615 478 1122 710 2033 149
585 224 1043 256 1560 14 236 6 760 -16 975 -76 753 -265 1412 -594 2070 -454
907 -1114 1705 -2101 2541 -421 357 -872 696 -2430 1834 -1597 1166 -2398
1763 -3170 2364 -1179 917 -2076 1699 -2399 2090 -154 187 -321 491 -405 739
-106 312 -152 583 -163 957 -26 936 282 2087 941 3518 220 478 439 908 884
1737 460 857 708 1391 995 2147 427 1122 665 2114 759 3163 17 194 18 998 0
1175 -52 539 -136 962 -274 1385 -586 1796 -2018 3154 -4242 4022 -1214 474
-2628 771 -4131 868 -159 11 -971 21 -1095 14z"/>
</g>
</svg>
